<svg xmlns="http://www.w3.org/2000/svg" xmlns:xlink="http://www.w3.org/1999/xlink" version="1.1" x="0px" y="0px" viewBox="0 0 100 125" enable-background="new 0 0 100 100" xml:space="preserve"><g><path fill="none" stroke="#686868" stroke-width="3" stroke-linecap="round" stroke-linejoin="round" stroke-miterlimit="10" d="   M83.241,44.911c-0.061,0-0.119,0.008-0.179,0.009c0-0.003,0-0.006,0-0.009c0-12.141-9.842-21.982-21.982-21.982   c-8.866,0-16.486,5.26-19.962,12.819c-2.312-1.22-4.942-1.918-7.739-1.918c-7.251,0-13.401,4.652-15.672,11.128   c-0.313-0.026-0.628-0.047-0.948-0.047c-6.12,0-11.08,4.96-11.08,11.08c0,6.119,4.96,11.08,11.08,11.08h66.481   c6.12,0,11.08-4.961,11.08-11.08C94.321,49.871,89.36,44.911,83.241,44.911z"/></g></svg>
