<svg xmlns="http://www.w3.org/2000/svg" xmlns:xlink="http://www.w3.org/1999/xlink" version="1.1" x="0px" y="0px" viewBox="0 0 100 125" enable-background="new 0 0 100 100" xml:space="preserve"><g><path fill="none" stroke="#686868" stroke-width="3" stroke-linecap="round" stroke-linejoin="round" stroke-miterlimit="10" d="   M82.48,61.642c-0.06,0-0.117,0.007-0.175,0.008c0-0.003,0.001-0.005,0.001-0.008c0-11.863-9.617-21.479-21.479-21.479   c-8.663,0-16.109,5.139-19.505,12.526c-2.26-1.192-4.83-1.874-7.562-1.874c-7.084,0-13.094,4.546-15.313,10.874   c-0.306-0.026-0.612-0.046-0.926-0.046c-5.979,0-10.826,4.846-10.826,10.826c0,5.979,4.847,10.827,10.826,10.827h64.96   c5.979,0,10.826-4.847,10.826-10.827C93.306,66.488,88.459,61.642,82.48,61.642z"/><path fill="none" stroke="#686868" stroke-width="3" stroke-linecap="round" stroke-linejoin="round" stroke-miterlimit="10" d="   M71.5,43.019c1.426,0.819,2.745,1.799,3.941,2.913c0.93-0.567,1.811-1.246,2.616-2.05c5.471-5.471,5.471-14.341,0-19.811   c-3.677-3.677-8.89-4.878-13.574-3.612c2.284,0.618,4.443,1.819,6.236,3.612C75.913,29.264,76.166,37.515,71.5,43.019z"/></g></svg>
