<svg xmlns="http://www.w3.org/2000/svg" xmlns:xlink="http://www.w3.org/1999/xlink" version="1.1" x="0px" y="0px" viewBox="0 0 100 125" enable-background="new 0 0 100 100" xml:space="preserve"><g><path fill="none" stroke="#686868" stroke-width="3" stroke-linecap="round" stroke-linejoin="round" stroke-miterlimit="10" d="   M81.185,58.871c-0.057,0-0.112,0.007-0.168,0.008c0-0.003,0.001-0.005,0.001-0.008c0-11.436-9.271-20.706-20.706-20.706   c-8.351,0-15.528,4.954-18.803,12.075c-2.178-1.149-4.655-1.807-7.289-1.807c-6.829,0-12.623,4.382-14.763,10.482   c-0.294-0.025-0.59-0.044-0.892-0.044c-5.765,0-10.437,4.672-10.437,10.437c0,5.764,4.672,10.437,10.437,10.437h62.619   c5.765,0,10.437-4.673,10.437-10.437C91.621,63.542,86.949,58.871,81.185,58.871z"/><g><path fill="none" stroke="#686868" stroke-width="3" stroke-linecap="round" stroke-linejoin="round" stroke-miterlimit="10" d="    M61.281,37.031"/><path fill="none" stroke="#686868" stroke-width="3" stroke-linecap="round" stroke-linejoin="round" stroke-miterlimit="10" d="    M80.545,48.589c1.277-2.159,1.845-4.757,1.432-7.429c-0.947-6.132-6.688-10.336-12.819-9.389c-3.406,0.526-6.212,2.533-7.876,5.26    "/><path fill="none" stroke="#686868" stroke-width="3" stroke-linecap="round" stroke-linejoin="round" stroke-miterlimit="10" d="    M80.545,48.589"/><line fill="none" stroke="#686868" stroke-width="3" stroke-linecap="round" stroke-linejoin="round" stroke-miterlimit="10" x1="67.255" y1="19.453" x2="67.979" y2="24.138"/><line fill="none" stroke="#686868" stroke-width="3" stroke-linecap="round" stroke-linejoin="round" stroke-miterlimit="10" x1="51.753" y1="28.871" x2="55.575" y2="31.674"/><line fill="none" stroke="#686868" stroke-width="3" stroke-linecap="round" stroke-linejoin="round" stroke-miterlimit="10" x1="89.991" y1="56.879" x2="86.167" y2="54.078"/><line fill="none" stroke="#686868" stroke-width="3" stroke-linecap="round" stroke-linejoin="round" stroke-miterlimit="10" x1="94.293" y1="39.259" x2="89.609" y2="39.982"/><line fill="none" stroke="#686868" stroke-width="3" stroke-linecap="round" stroke-linejoin="round" stroke-miterlimit="10" x1="84.875" y1="23.755" x2="82.074" y2="27.581"/></g></g></svg>
