<svg xmlns="http://www.w3.org/2000/svg" xmlns:xlink="http://www.w3.org/1999/xlink" version="1.1" x="0px" y="0px" viewBox="0 0 100 125" enable-background="new 0 0 100 100" xml:space="preserve"><g><path fill="none" stroke="#686868" stroke-width="3" stroke-linecap="round" stroke-linejoin="round" stroke-miterlimit="10" d="   M82.48,29.913c-0.061,0-0.117,0.007-0.176,0.009c0-0.004,0.002-0.006,0.002-0.009c0-11.863-9.617-21.479-21.48-21.479   c-8.662,0-16.109,5.139-19.504,12.526c-2.26-1.192-4.83-1.874-7.562-1.874c-7.084,0-13.094,4.546-15.314,10.874   c-0.305-0.025-0.611-0.046-0.926-0.046c-5.979,0-10.826,4.847-10.826,10.826s4.848,10.827,10.826,10.827H82.48   c5.979,0,10.826-4.848,10.826-10.827S88.459,29.913,82.48,29.913z"/><g><line fill="none" stroke="#686868" stroke-width="3" stroke-linecap="round" stroke-linejoin="round" stroke-miterlimit="10" x1="27" y1="60" x2="27" y2="62.25"/><line fill="none" stroke="#686868" stroke-width="3" stroke-linecap="round" stroke-linejoin="round" stroke-miterlimit="10" x1="37" y1="60" x2="37" y2="62.25"/><line fill="none" stroke="#686868" stroke-width="3" stroke-linecap="round" stroke-linejoin="round" stroke-miterlimit="10" x1="47" y1="60" x2="47" y2="62.25"/><line fill="none" stroke="#686868" stroke-width="3" stroke-linecap="round" stroke-linejoin="round" stroke-miterlimit="10" x1="57" y1="60" x2="57" y2="62.25"/><line fill="none" stroke="#686868" stroke-width="3" stroke-linecap="round" stroke-linejoin="round" stroke-miterlimit="10" x1="67" y1="60" x2="67" y2="62.25"/><line fill="none" stroke="#686868" stroke-width="3" stroke-linecap="round" stroke-linejoin="round" stroke-miterlimit="10" x1="73" y1="70" x2="73" y2="72.25"/><line fill="none" stroke="#686868" stroke-width="3" stroke-linecap="round" stroke-linejoin="round" stroke-miterlimit="10" x1="63" y1="70" x2="63" y2="72.25"/><line fill="none" stroke="#686868" stroke-width="3" stroke-linecap="round" stroke-linejoin="round" stroke-miterlimit="10" x1="53" y1="70" x2="53" y2="72.25"/><line fill="none" stroke="#686868" stroke-width="3" stroke-linecap="round" stroke-linejoin="round" stroke-miterlimit="10" x1="43" y1="70" x2="43" y2="72.25"/><line fill="none" stroke="#686868" stroke-width="3" stroke-linecap="round" stroke-linejoin="round" stroke-miterlimit="10" x1="33" y1="70" x2="33" y2="72.25"/><line fill="none" stroke="#686868" stroke-width="3" stroke-linecap="round" stroke-linejoin="round" stroke-miterlimit="10" x1="67" y1="80" x2="67" y2="82.25"/><line fill="none" stroke="#686868" stroke-width="3" stroke-linecap="round" stroke-linejoin="round" stroke-miterlimit="10" x1="57" y1="80" x2="57" y2="82.25"/><line fill="none" stroke="#686868" stroke-width="3" stroke-linecap="round" stroke-linejoin="round" stroke-miterlimit="10" x1="47" y1="80" x2="47" y2="82.25"/><line fill="none" stroke="#686868" stroke-width="3" stroke-linecap="round" stroke-linejoin="round" stroke-miterlimit="10" x1="37" y1="80" x2="37" y2="82.25"/><line fill="none" stroke="#686868" stroke-width="3" stroke-linecap="round" stroke-linejoin="round" stroke-miterlimit="10" x1="27" y1="80" x2="27" y2="82.25"/></g></g></svg>
