<svg xmlns="http://www.w3.org/2000/svg" xmlns:xlink="http://www.w3.org/1999/xlink" version="1.1" x="0px" y="0px" viewBox="0 0 109.398 124.20625" enable-background="new 0 0 109.398 99.365" xml:space="preserve"><g><path d="M65.55,78.48c-0.896-5.116-5.764-9.279-10.852-9.279s-9.956,4.163-10.852,9.279l-0.899,5.134   c-0.438,2.506,0.15,4.875,1.658,6.669c1.507,1.794,3.738,2.782,6.283,2.782h7.621c2.544,0,4.775-0.988,6.283-2.782   c1.508-1.794,2.096-4.163,1.658-6.669L65.55,78.48z M64.026,89.64c-1.314,1.564-3.273,2.425-5.517,2.425h-7.621   c-2.244,0-4.203-0.861-5.517-2.425c-1.314-1.564-1.825-3.643-1.438-5.854l0.899-5.134c0.815-4.66,5.242-8.452,9.866-8.452   s9.051,3.792,9.866,8.452l0.899,5.134C65.851,85.997,65.34,88.076,64.026,89.64z"/><path d="M59.709,87.677H49.687c-0.276,0-0.5,0.224-0.5,0.5s0.224,0.5,0.5,0.5h10.022c0.276,0,0.5-0.224,0.5-0.5   S59.986,87.677,59.709,87.677z"/><path d="M107.089,0.362c-1.661-0.492-3.564,0.708-4.325,2.733c-1.28,3.426-2.899,6.744-4.82,9.879l-1.319-5.256   c-0.604-2.407-2.596-3.989-4.437-3.526c-1.841,0.462-2.848,2.796-2.244,5.203l2.574,10.253c0.047,0.188,0.103,0.37,0.166,0.547   c-1.89,2.217-3.96,4.301-6.163,6.203l-1.691-6.736c-0.604-2.407-2.597-3.992-4.437-3.526c-1.841,0.462-2.848,2.796-2.244,5.203   l2.402,9.571c-2.996,1.97-6.158,3.651-9.404,5.008c-0.354-0.117-0.709-0.229-1.062-0.317c-5.105-0.603-10.282-0.908-15.387-0.908   s-10.282,0.306-15.449,0.919c-0.334,0.083-0.67,0.191-1.006,0.301c-3.244-1.356-6.403-3.036-9.395-5.004l2.402-9.571   c0.604-2.406-0.402-4.74-2.244-5.203c-1.839-0.462-3.832,1.119-4.436,3.526l-1.691,6.736c-2.203-1.902-4.273-3.986-6.163-6.203   c0.063-0.177,0.119-0.36,0.166-0.547l2.574-10.253c0.604-2.406-0.402-4.74-2.244-5.203c-1.845-0.462-3.833,1.119-4.436,3.526   l-1.319,5.256c-1.921-3.135-3.541-6.453-4.82-9.88c-0.76-2.024-2.66-3.227-4.325-2.732C1.606,0.569,1.018,1.086,0.653,1.817   C0.149,2.827,0.119,4.151,0.572,5.36c5.611,15.023,16.543,27.24,30.815,34.5c-1.83,1.514-3.505,3.296-4.865,5.205l-4.707-6.875   c-0.78-1.138-2.455-2.219-3.813-2.46L3.275,33.112c-0.782-0.139-1.412,0.042-1.781,0.51c-0.37,0.467-0.399,1.125-0.083,1.851   l6.088,13.981c0.548,1.26,1.968,2.667,3.233,3.204L22.819,57.8c-0.566,8.161-0.381,16.382,0.587,24.553   c1.684,6.756,9.087,14.159,15.905,15.854c5.105,0.603,10.282,0.908,15.387,0.908s10.282-0.306,15.449-0.919   c6.756-1.684,14.159-9.086,15.854-15.905c0.956-8.087,1.141-16.266,0.578-24.422l12.249-5.209c1.265-0.538,2.686-1.945,3.233-3.204   l6.088-13.982c0.315-0.726,0.286-1.383-0.083-1.851c-0.369-0.468-1.001-0.649-1.781-0.51L91.558,35.73   c-1.358,0.241-3.034,1.322-3.813,2.46l-4.782,6.985c-1.373-1.944-3.081-3.764-4.953-5.309c14.271-7.26,25.21-19.497,30.816-34.507   c0.453-1.209,0.422-2.534-0.082-3.543C108.38,1.086,107.792,0.569,107.089,0.362z M1.508,5.01c-0.357-0.954-0.342-1.98,0.04-2.746   c0.169-0.339,0.488-0.779,1.045-0.943c1.149-0.338,2.539,0.615,3.105,2.124C7.137,7.299,9,11.02,11.233,14.503   c0.108,0.167,0.307,0.255,0.501,0.224c0.197-0.032,0.356-0.179,0.404-0.372l1.605-6.394c0.462-1.839,1.942-3.117,3.223-2.8   c1.285,0.323,1.98,2.15,1.518,3.99l-2.574,10.253c-0.061,0.242-0.139,0.474-0.231,0.694c-0.072,0.173-0.042,0.372,0.079,0.515   c2.151,2.55,4.536,4.929,7.087,7.07c0.133,0.111,0.312,0.147,0.476,0.093c0.164-0.053,0.289-0.187,0.331-0.354l1.887-7.517   c0.462-1.839,1.941-3.116,3.223-2.8c1.285,0.323,1.98,2.15,1.518,3.99l-2.488,9.914c-0.052,0.205,0.032,0.42,0.208,0.538   c2.84,1.892,5.836,3.516,8.911,4.868c-1.587,0.678-3.166,1.627-4.664,2.767C17.997,32.061,7.085,19.941,1.508,5.01z M11.123,51.739   c-1.024-0.435-2.264-1.663-2.707-2.683L2.328,35.075c-0.157-0.361-0.175-0.672-0.049-0.833c0.127-0.16,0.434-0.214,0.821-0.146   l14.727,2.618c1.089,0.194,2.538,1.128,3.163,2.041l4.933,7.205c-1.175,1.812-2.067,3.704-2.528,5.556   c-0.206,1.739-0.363,3.483-0.498,5.23L11.123,51.739z M88.57,38.756c0.625-0.913,2.074-1.847,3.163-2.041l14.727-2.618   c0.389-0.068,0.695-0.015,0.821,0.146s0.108,0.471-0.049,0.832l-6.088,13.982c-0.443,1.019-1.683,2.248-2.708,2.683l-11.936,5.076   c-0.138-1.789-0.299-3.577-0.511-5.362c-0.446-1.788-1.3-3.619-2.431-5.38L88.57,38.756z M85.008,51.633   c1.197,10.132,1.197,20.408,0.011,30.478c-1.578,6.333-8.782,13.536-15.052,15.103c-5.066,0.598-10.204,0.901-15.27,0.901   s-10.204-0.303-15.207-0.89c-6.333-1.578-13.537-8.781-15.103-15.051c-1.197-10.132-1.197-20.408-0.011-30.478   c1.491-5.984,8.005-12.739,14.008-14.787c0.006-0.002,0.012-0.003,0.018-0.005c0.344-0.117,0.687-0.226,1.025-0.31   c5.066-0.598,10.204-0.901,15.27-0.901s10.204,0.303,15.207,0.89C76.238,38.16,83.442,45.363,85.008,51.633z M107.89,5.01   c-5.562,14.89-16.45,27.014-30.659,34.139c-0.026,0.013-0.043,0.035-0.065,0.051c-1.503-1.142-3.089-2.097-4.688-2.781   c3.078-1.353,6.078-2.979,8.922-4.874c0.176-0.117,0.259-0.333,0.208-0.538l-2.488-9.914c-0.462-1.84,0.233-3.667,1.518-3.99   c1.288-0.317,2.761,0.96,3.223,2.8l1.887,7.517c0.042,0.167,0.167,0.301,0.331,0.354c0.165,0.054,0.343,0.019,0.476-0.093   c2.551-2.141,4.936-4.52,7.087-7.07c0.121-0.143,0.151-0.342,0.079-0.515c-0.092-0.22-0.17-0.452-0.231-0.694L90.914,9.15   c-0.462-1.84,0.233-3.667,1.518-3.99c1.287-0.317,2.761,0.96,3.223,2.8l1.605,6.394c0.048,0.193,0.208,0.34,0.404,0.372   c0.194,0.033,0.394-0.056,0.501-0.224c2.233-3.483,4.096-7.204,5.535-11.058c0.567-1.51,1.958-2.463,3.105-2.125   c0.557,0.164,0.875,0.604,1.045,0.943C108.232,3.029,108.247,4.056,107.89,5.01z"/><path d="M54.815,74.202h-0.234c-2.415,0-4.888,1.817-5.512,4.051c-0.309,1.104-0.137,2.163,0.484,2.981   c0.646,0.851,1.728,1.339,2.967,1.339h4.357c1.239,0,2.321-0.488,2.967-1.339c0.621-0.818,0.792-1.877,0.484-2.981   C59.703,76.02,57.23,74.202,54.815,74.202z"/><circle cx="71.212" cy="62.569" r="2.107"/><circle cx="38.186" cy="62.569" r="2.107"/></g></svg>
